<svg data-v-423bf9ae="" xmlns="http://www.w3.org/2000/svg" viewBox="0 0 188.04998397827148 60" class="font"><!----><!----><!----><g data-v-423bf9ae="" id="153e5794-0cb8-4051-9707-413a2a445930" fill="white" transform="matrix(5,0,0,5,-2.799997568130493,-15.599998474121094)"><path d="M10.42 5.00L10.42 5.00Q10.08 4.98 9.74 4.96Q9.40 4.94 9.01 4.92Q8.62 4.90 8.15 4.89Q7.68 4.87 7.10 4.87L7.10 4.87Q6.34 4.87 5.64 4.91Q4.94 4.95 4.25 5.05Q3.55 5.15 2.86 5.34Q2.17 5.52 1.45 5.82L1.45 5.82Q1.74 6.64 1.92 7.43Q2.10 8.22 2.20 8.93Q2.30 9.64 2.33 10.26Q2.37 10.88 2.37 11.38L2.37 11.38Q2.37 11.85 2.34 12.21Q2.32 12.57 2.30 12.81L2.30 12.81Q2.27 13.10 2.23 13.30L2.23 13.30Q2.56 12.52 2.87 11.65Q3.18 10.78 3.46 9.92Q3.74 9.06 3.98 8.26Q4.22 7.46 4.40 6.83Q4.58 6.19 4.70 5.77Q4.81 5.34 4.85 5.22L4.85 5.22Q5.00 5.35 5.21 5.54Q5.43 5.73 5.65 5.93Q5.87 6.14 6.05 6.33Q6.24 6.51 6.34 6.64L6.34 6.64Q6.17 7.27 5.89 8.04Q5.61 8.80 5.27 9.62Q4.94 10.43 4.57 11.25Q4.20 12.07 3.85 12.80Q3.50 13.53 3.20 14.13Q2.91 14.73 2.71 15.12L2.71 15.12Q2.61 15.02 2.46 14.84Q2.31 14.66 2.15 14.48Q2.00 14.30 1.86 14.14Q1.73 13.99 1.67 13.92L1.67 13.92Q1.68 13.84 1.72 13.63Q1.76 13.43 1.79 13.13Q1.83 12.82 1.86 12.42Q1.89 12.02 1.89 11.53L1.89 11.53Q1.89 10.96 1.84 10.32Q1.79 9.67 1.65 8.98Q1.51 8.28 1.25 7.54Q0.99 6.80 0.57 6.05L0.57 6.05Q0.57 6.05 0.57 6.04L0.57 6.04Q0.56 6.04 0.56 6.01L0.56 6.01Q0.56 5.94 0.61 5.82Q0.66 5.70 0.73 5.56Q0.81 5.42 0.91 5.28Q1.00 5.14 1.08 5.04L1.08 5.04Q1.11 5.00 1.41 4.84Q1.70 4.69 2.22 4.48Q2.73 4.27 3.45 4.03Q4.16 3.79 5.03 3.59Q5.90 3.38 6.90 3.25Q7.90 3.12 8.99 3.12L8.99 3.12Q9.04 3.18 9.14 3.31Q9.25 3.43 9.39 3.60Q9.52 3.77 9.68 3.96Q9.83 4.16 9.97 4.34Q10.12 4.53 10.23 4.70Q10.35 4.87 10.42 5.00ZM10.62 13.10L10.62 13.10Q10.73 13.10 10.90 13.02Q11.07 12.93 11.28 12.79Q11.48 12.65 11.70 12.49Q11.92 12.32 12.12 12.16Q12.33 12.00 12.48 11.86Q12.64 11.73 12.72 11.66L12.72 11.66Q12.78 11.72 12.87 11.82Q12.95 11.92 13.03 12.00L13.03 12.00Q12.88 12.15 12.65 12.36Q12.43 12.56 12.17 12.78Q11.91 13.00 11.63 13.21Q11.35 13.43 11.08 13.60Q10.81 13.77 10.58 13.87Q10.35 13.97 10.19 13.97L10.19 13.97Q10.06 13.97 9.89 13.91Q9.71 13.84 9.55 13.74Q9.39 13.64 9.28 13.52Q9.17 13.41 9.17 13.29L9.17 13.29Q9.17 13.00 9.28 12.61Q9.38 12.22 9.52 11.81Q9.66 11.40 9.82 11.00Q9.98 10.60 10.12 10.28L10.12 10.28Q10.06 10.29 9.91 10.43Q9.75 10.57 9.53 10.80Q9.30 11.04 9.04 11.37Q8.78 11.70 8.52 12.11Q8.26 12.52 8.03 13.00Q7.80 13.47 7.64 14L7.64 14Q7.62 14.08 7.58 14.11Q7.55 14.14 7.46 14.14L7.46 14.14Q7.40 14.14 7.27 14.08Q7.14 14.02 6.99 13.94Q6.85 13.85 6.71 13.75Q6.58 13.66 6.49 13.58L6.49 13.58Q6.45 13.54 6.43 13.49Q6.40 13.45 6.40 13.37L6.40 13.37Q6.40 12.92 6.55 12.26Q6.70 11.61 6.96 10.84Q7.23 10.07 7.58 9.23Q7.93 8.39 8.33 7.59Q8.73 6.78 9.16 6.05Q9.60 5.33 10.02 4.77Q10.44 4.21 10.82 3.87Q11.21 3.53 11.53 3.51L11.53 3.51Q11.69 3.56 11.85 3.66Q12.01 3.77 12.15 3.89Q12.30 4.01 12.41 4.13Q12.52 4.25 12.58 4.33L12.58 4.33Q12.63 4.38 12.64 4.46Q12.65 4.53 12.65 4.57L12.65 4.57Q12.65 4.81 12.52 5.17Q12.38 5.54 12.13 5.99Q11.89 6.44 11.54 6.96Q11.18 7.47 10.76 8.02Q10.33 8.56 9.83 9.11Q9.34 9.67 8.80 10.19L8.80 10.19Q8.66 10.55 8.55 10.90L8.55 10.90Q8.92 10.52 9.23 10.26Q9.54 10.00 9.78 9.85Q10.01 9.69 10.18 9.63Q10.35 9.56 10.44 9.56L10.44 9.56Q10.50 9.56 10.66 9.64Q10.81 9.72 10.99 9.83Q11.16 9.94 11.30 10.06Q11.44 10.17 11.48 10.25L11.48 10.25Q11.49 10.28 11.48 10.34Q11.46 10.40 11.45 10.43L11.45 10.43Q11.39 10.62 11.30 10.86Q11.22 11.10 11.12 11.37Q11.02 11.64 10.92 11.92Q10.83 12.19 10.75 12.42Q10.68 12.65 10.63 12.82Q10.58 13.00 10.58 13.06L10.58 13.06Q10.58 13.10 10.62 13.10ZM10.02 7.23L10.02 7.23Q9.86 7.57 9.70 7.92Q9.55 8.26 9.41 8.61L9.41 8.61Q9.86 8.03 10.29 7.42Q10.73 6.82 11.06 6.26Q11.40 5.70 11.61 5.23Q11.81 4.76 11.81 4.44L11.81 4.44Q11.81 4.29 11.76 4.29L11.76 4.29Q11.68 4.29 11.51 4.51Q11.34 4.73 11.11 5.12Q10.88 5.51 10.60 6.05Q10.32 6.59 10.02 7.23ZM15.79 10.85L15.79 10.85Q15.70 11.12 15.57 11.46Q15.44 11.80 15.31 12.13Q15.19 12.46 15.10 12.72Q15.02 12.99 15.02 13.10L15.02 13.10Q15.02 13.15 15.06 13.15L15.06 13.15Q15.13 13.15 15.29 13.06Q15.44 12.97 15.63 12.82Q15.83 12.68 16.04 12.51Q16.25 12.34 16.44 12.17Q16.64 12.00 16.80 11.87Q16.95 11.73 17.04 11.66L17.04 11.66Q17.10 11.72 17.18 11.82Q17.27 11.92 17.34 12.00L17.34 12.00Q17.19 12.15 16.97 12.36Q16.74 12.58 16.48 12.80Q16.21 13.03 15.93 13.25Q15.65 13.48 15.38 13.66Q15.11 13.84 14.88 13.95Q14.64 14.05 14.49 14.05L14.49 14.05Q14.38 14.05 14.23 13.98Q14.07 13.91 13.92 13.81Q13.78 13.70 13.68 13.57Q13.58 13.44 13.58 13.32L13.58 13.32Q13.68 12.86 13.78 12.52Q13.88 12.17 13.97 11.93Q14.06 11.69 14.13 11.54Q14.20 11.39 14.23 11.31L14.23 11.31Q14.15 11.28 14.08 11.24Q14 11.20 13.92 11.16L13.92 11.16Q13.82 11.27 13.68 11.40Q13.55 11.53 13.41 11.66Q13.28 11.79 13.14 11.92Q13.00 12.04 12.89 12.14L12.89 12.14L12.56 11.81Q12.74 11.63 12.99 11.39Q13.24 11.15 13.48 10.90L13.48 10.90Q13.31 10.80 13.17 10.71Q13.04 10.62 12.94 10.54L12.94 10.54Q12.82 10.46 12.74 10.39L12.74 10.39Q12.69 10.37 12.69 10.30L12.69 10.30Q12.69 10.23 12.75 10.09Q12.81 9.95 12.90 9.79Q12.99 9.63 13.09 9.46Q13.19 9.29 13.29 9.15Q13.38 9.02 13.46 8.93Q13.53 8.85 13.55 8.85L13.55 8.85Q13.56 8.85 13.64 8.88Q13.72 8.91 13.81 8.96Q13.90 9.00 13.97 9.06Q14.05 9.11 14.07 9.15L14.07 9.15Q14.08 9.19 14.08 9.30Q14.09 9.41 14.10 9.56L14.10 9.56Q14.36 9.70 14.64 9.87Q14.92 10.05 15.16 10.21L15.16 10.21Q15.43 10.38 15.67 10.57L15.67 10.57Q15.76 10.62 15.79 10.71Q15.81 10.79 15.79 10.85ZM21.43 11.66L21.77 12.00Q21.14 12.61 20.58 13.03Q20.02 13.45 19.52 13.70Q19.01 13.95 18.55 14.06Q18.09 14.17 17.65 14.17L17.65 14.17Q17.47 14.17 17.24 14.03Q17.01 13.90 16.82 13.70Q16.63 13.51 16.50 13.30Q16.37 13.08 16.37 12.93L16.37 12.93Q16.37 12.37 16.52 11.90Q16.67 11.44 16.93 11.06Q17.18 10.68 17.50 10.40Q17.83 10.11 18.18 9.92Q18.53 9.73 18.88 9.63Q19.23 9.54 19.52 9.54L19.52 9.54Q19.74 9.54 19.94 9.66Q20.15 9.78 20.32 9.96Q20.49 10.14 20.60 10.33Q20.71 10.53 20.71 10.67L20.71 10.67Q20.71 10.90 20.51 11.15Q20.32 11.39 19.96 11.64Q19.61 11.89 19.11 12.16Q18.61 12.42 18.01 12.69L18.01 12.69Q17.99 12.85 17.99 13.01L17.99 13.01Q17.99 13.22 18.08 13.30Q18.17 13.37 18.42 13.37L18.42 13.37Q18.87 13.37 19.27 13.22Q19.67 13.07 20.04 12.83Q20.41 12.59 20.75 12.28Q21.10 11.98 21.43 11.66L21.43 11.66ZM19.36 10.29L19.36 10.29Q19.22 10.29 19.06 10.44Q18.89 10.58 18.73 10.82Q18.57 11.06 18.42 11.37Q18.27 11.68 18.16 12.02L18.16 12.02Q18.41 11.85 18.65 11.67Q18.89 11.48 19.09 11.28Q19.28 11.08 19.39 10.87Q19.51 10.66 19.51 10.45L19.51 10.45Q19.51 10.38 19.47 10.34Q19.43 10.29 19.36 10.29ZM25.28 13.08L25.28 13.08Q25.28 13.12 25.32 13.12L25.32 13.12Q25.38 13.12 25.53 13.03Q25.67 12.94 25.85 12.80Q26.04 12.67 26.25 12.50Q26.46 12.33 26.65 12.16Q26.84 12.00 26.99 11.86Q27.15 11.72 27.23 11.65L27.23 11.65Q27.29 11.71 27.38 11.81Q27.47 11.92 27.55 12.00L27.55 12.00Q27.38 12.15 27.16 12.36Q26.93 12.58 26.66 12.81Q26.40 13.04 26.12 13.27Q25.84 13.50 25.57 13.68Q25.31 13.86 25.07 13.97Q24.83 14.08 24.65 14.08L24.65 14.08Q24.53 14.08 24.38 14.03Q24.23 13.99 24.11 13.90Q23.99 13.82 23.91 13.70Q23.82 13.58 23.82 13.44L23.82 13.44Q23.82 13.38 23.82 13.31Q23.82 13.23 23.83 13.10Q23.84 12.97 23.88 12.79Q23.93 12.61 24.01 12.35L24.01 12.35Q23.78 12.58 23.48 12.84Q23.17 13.10 22.84 13.34Q22.50 13.57 22.17 13.76Q21.83 13.95 21.54 14.04L21.54 14.04Q21.51 14.05 21.49 14.05Q21.46 14.05 21.44 14.05L21.44 14.05Q21.38 14.05 21.26 13.99Q21.15 13.92 21.04 13.81Q20.93 13.69 20.85 13.55Q20.77 13.41 20.77 13.26L20.77 13.26Q20.77 13.22 20.82 12.99Q20.86 12.76 21.01 12.40Q21.16 12.04 21.46 11.59Q21.77 11.14 22.29 10.67L22.29 10.67Q22.55 10.43 22.86 10.22L22.86 10.22Q23.12 10.04 23.45 9.86Q23.79 9.67 24.16 9.56L24.16 9.56Q24.17 9.56 24.18 9.56Q24.19 9.55 24.21 9.56L24.21 9.56Q24.29 9.59 24.41 9.65Q24.52 9.71 24.63 9.77Q24.75 9.84 24.83 9.90Q24.92 9.97 24.94 10.01L24.94 10.01Q24.95 10.02 24.94 10.03L24.94 10.03L24.93 10.04Q24.62 10.21 24.35 10.41Q24.08 10.61 23.86 10.79L23.86 10.79Q23.62 11.00 23.41 11.20L23.41 11.20Q22.91 11.70 22.72 12.06Q22.52 12.41 22.52 12.57L22.52 12.57Q22.52 12.69 22.62 12.69L22.62 12.69Q22.72 12.69 22.86 12.61Q23.01 12.53 23.19 12.40Q23.38 12.26 23.60 12.08Q23.82 11.90 24.06 11.70L24.06 11.70Q24.27 11.53 24.47 11.33L24.47 11.33Q24.64 11.17 24.83 10.96Q25.01 10.75 25.14 10.53L25.14 10.53Q25.14 10.52 25.15 10.51L25.15 10.51Q25.16 10.51 25.17 10.51L25.17 10.51Q25.25 10.57 25.34 10.69Q25.44 10.82 25.52 10.97Q25.60 11.12 25.66 11.26Q25.72 11.40 25.72 11.48L25.72 11.48Q25.56 11.80 25.47 12.06Q25.39 12.33 25.34 12.52Q25.30 12.72 25.29 12.86Q25.28 13.00 25.28 13.08ZM31.30 12.92L31.30 12.92Q31.30 13.09 31.41 13.09L31.41 13.09Q31.54 13.09 31.72 13.01Q31.90 12.93 32.10 12.79Q32.30 12.66 32.50 12.50Q32.71 12.33 32.89 12.17Q33.07 12.02 33.22 11.88Q33.36 11.74 33.44 11.66L33.44 11.66Q33.51 11.72 33.61 11.82Q33.70 11.92 33.78 12.00L33.78 12.00Q33.60 12.17 33.37 12.39Q33.15 12.61 32.89 12.84Q32.63 13.07 32.36 13.29Q32.08 13.50 31.81 13.67Q31.53 13.84 31.27 13.94Q31.01 14.04 30.78 14.04L30.78 14.04Q30.66 14.04 30.48 13.93Q30.30 13.82 30.14 13.65Q29.98 13.49 29.86 13.31Q29.75 13.13 29.75 12.98L29.75 12.98Q29.75 12.67 29.79 12.33L29.79 12.33Q29.48 12.60 29.20 12.84Q28.91 13.09 28.62 13.31Q28.33 13.52 28.02 13.70Q27.72 13.88 27.38 14.01L27.38 14.01Q27.28 14.05 27.20 14.05L27.20 14.05Q27.13 14.05 27.02 13.99Q26.91 13.92 26.81 13.81Q26.71 13.71 26.63 13.57Q26.56 13.44 26.56 13.32L26.56 13.32Q26.56 13.04 26.66 12.69Q26.77 12.35 26.97 11.98Q27.17 11.61 27.46 11.25Q27.75 10.88 28.12 10.56Q28.49 10.23 28.94 9.97Q29.38 9.71 29.89 9.55L29.89 9.55Q29.98 9.56 30.13 9.64Q30.28 9.71 30.41 9.78L30.41 9.78Q30.66 9.08 30.98 8.37Q31.29 7.66 31.65 7.01Q32.01 6.36 32.40 5.79Q32.79 5.22 33.18 4.77Q33.57 4.33 33.95 4.06Q34.33 3.79 34.67 3.73L34.67 3.73Q34.82 3.73 34.99 3.82Q35.16 3.92 35.31 4.06Q35.46 4.20 35.56 4.35Q35.67 4.50 35.70 4.61L35.70 4.61Q35.70 4.92 35.54 5.34Q35.38 5.76 35.11 6.24Q34.83 6.72 34.45 7.25Q34.07 7.77 33.63 8.32Q33.20 8.86 32.71 9.40Q32.23 9.94 31.75 10.45L31.75 10.45Q31.54 11.14 31.42 11.77Q31.30 12.41 31.30 12.92ZM34.73 4.55L34.73 4.55Q34.62 4.55 34.45 4.72Q34.28 4.89 34.07 5.20Q33.87 5.50 33.63 5.92Q33.40 6.34 33.16 6.83Q32.92 7.32 32.68 7.88Q32.44 8.43 32.23 9.00L32.23 9.00Q32.74 8.37 33.21 7.73Q33.67 7.10 34.02 6.54Q34.36 5.97 34.57 5.50Q34.77 5.02 34.77 4.72L34.77 4.72Q34.77 4.68 34.77 4.61Q34.77 4.55 34.73 4.55ZM28.25 12.69L28.25 12.69Q28.47 12.69 28.92 12.37Q29.36 12.05 29.92 11.52L29.92 11.52Q29.98 11.20 30.07 10.88Q30.16 10.55 30.27 10.22L30.27 10.22Q29.87 10.49 29.49 10.83Q29.11 11.17 28.82 11.50Q28.53 11.84 28.35 12.13Q28.16 12.42 28.16 12.57L28.16 12.57Q28.16 12.69 28.25 12.69ZM33.31 11.79L33.31 11.79Q33.47 11.64 33.67 11.45Q33.87 11.26 34.07 11.03Q34.28 10.81 34.45 10.55Q34.62 10.29 34.73 9.99L34.73 9.99Q34.75 9.83 34.81 9.66Q34.87 9.48 34.94 9.34Q35.01 9.19 35.08 9.10Q35.15 9.00 35.21 9.00L35.21 9.00Q35.29 9.05 35.45 9.18Q35.62 9.32 35.78 9.47Q35.94 9.62 36.07 9.74Q36.20 9.87 36.20 9.90L36.20 9.90Q36.11 10.21 36.12 10.47Q36.12 10.72 36.16 10.96Q36.20 11.21 36.24 11.49Q36.29 11.76 36.29 12.13L36.29 12.13Q36.29 12.35 36.21 12.63Q36.14 12.91 35.96 13.14L35.96 13.14Q36.31 12.93 36.65 12.68Q37.00 12.42 37.26 12.20L37.26 12.20Q37.58 11.93 37.86 11.66L37.86 11.66L38.17 12.00Q37.95 12.21 37.68 12.45Q37.42 12.69 37.14 12.92Q36.85 13.15 36.56 13.36Q36.26 13.58 35.98 13.74Q35.69 13.90 35.42 14Q35.16 14.10 34.92 14.10L34.92 14.10Q34.73 14.10 34.49 14Q34.25 13.90 34.04 13.77Q33.82 13.63 33.67 13.48Q33.51 13.33 33.48 13.23L33.48 13.23Q33.48 13.21 33.51 13.17Q33.54 13.13 33.57 13.08Q33.61 13.03 33.65 12.99Q33.69 12.95 33.71 12.95L33.71 12.95Q33.75 12.95 33.87 13.02Q34.00 13.08 34.28 13.08L34.28 13.08Q34.44 13.08 34.55 13.00Q34.67 12.91 34.74 12.78Q34.82 12.64 34.85 12.46Q34.88 12.28 34.88 12.09L34.88 12.09Q34.88 11.80 34.86 11.53Q34.83 11.26 34.79 11.01L34.79 11.01Q34.68 11.14 34.53 11.29Q34.38 11.44 34.22 11.59Q34.07 11.74 33.92 11.88Q33.76 12.02 33.64 12.13L33.64 12.13L33.31 11.79Z"></path></g><!----><!----></svg>